<mxfile host="65bd71144e" scale="1" border="20">
    <diagram id="CX3G9Xh7dB3GCvSDx5av" name="第 1 页">
        <mxGraphModel dx="1138" dy="785" grid="0" gridSize="10" guides="1" tooltips="1" connect="1" arrows="1" fold="1" page="1" pageScale="1" pageWidth="1169" pageHeight="827" background="#ffffff" math="0" shadow="0">
            <root>
                <mxCell id="0"/>
                <mxCell id="1" parent="0"/>
                <mxCell id="111" style="edgeStyle=none;rounded=0;html=1;exitX=0.5;exitY=1;exitDx=0;exitDy=0;entryX=0.5;entryY=0;entryDx=0;entryDy=0;strokeColor=#000000;endArrow=none;endFill=0;" edge="1" parent="1">
                    <mxGeometry relative="1" as="geometry">
                        <mxPoint x="473.5" y="65" as="sourcePoint"/>
                        <mxPoint x="669.4999999999999" y="134" as="targetPoint"/>
                        <Array as="points">
                            <mxPoint x="474" y="110"/>
                            <mxPoint x="670" y="110"/>
                        </Array>
                    </mxGeometry>
                </mxCell>
                <mxCell id="28" value="在线考试系统" style="rounded=0;whiteSpace=wrap;html=1;fillColor=#FFFFFF;strokeColor=#000000;fontColor=#000000;" parent="1" vertex="1">
                    <mxGeometry x="386.5" y="22" width="174" height="42" as="geometry"/>
                </mxCell>
                <mxCell id="96" style="edgeStyle=none;html=1;exitX=0.5;exitY=1;exitDx=0;exitDy=0;entryX=0.5;entryY=0;entryDx=0;entryDy=0;rounded=0;strokeColor=#000000;endArrow=none;endFill=0;" edge="1" parent="1" source="80" target="82">
                    <mxGeometry relative="1" as="geometry"/>
                </mxCell>
                <mxCell id="110" style="edgeStyle=none;rounded=0;html=1;exitX=0.5;exitY=0;exitDx=0;exitDy=0;entryX=0.5;entryY=1;entryDx=0;entryDy=0;strokeColor=#000000;endArrow=none;endFill=0;" edge="1" parent="1" source="80" target="28">
                    <mxGeometry relative="1" as="geometry">
                        <Array as="points">
                            <mxPoint x="284" y="110"/>
                            <mxPoint x="474" y="110"/>
                        </Array>
                    </mxGeometry>
                </mxCell>
                <mxCell id="80" value="学生" style="rounded=0;whiteSpace=wrap;html=1;fillColor=#FFFFFF;strokeColor=#000000;fontColor=#000000;" vertex="1" parent="1">
                    <mxGeometry x="249" y="133" width="69" height="42" as="geometry"/>
                </mxCell>
                <mxCell id="81" value="教师" style="rounded=0;whiteSpace=wrap;html=1;fillColor=#FFFFFF;strokeColor=#000000;fontColor=#000000;" vertex="1" parent="1">
                    <mxGeometry x="635" y="133" width="69" height="42" as="geometry"/>
                </mxCell>
                <mxCell id="82" value="在&lt;br&gt;线&lt;br&gt;考&lt;br&gt;试" style="rounded=0;whiteSpace=wrap;html=1;fillColor=#FFFFFF;strokeColor=#000000;fontColor=#000000;" vertex="1" parent="1">
                    <mxGeometry x="271" y="241" width="27" height="106" as="geometry"/>
                </mxCell>
                <mxCell id="97" style="edgeStyle=none;rounded=0;html=1;exitX=0.5;exitY=0;exitDx=0;exitDy=0;entryX=0.5;entryY=0;entryDx=0;entryDy=0;strokeColor=#000000;endArrow=none;endFill=0;" edge="1" parent="1" source="83" target="85">
                    <mxGeometry relative="1" as="geometry">
                        <Array as="points">
                            <mxPoint x="174" y="214"/>
                            <mxPoint x="396" y="214"/>
                        </Array>
                    </mxGeometry>
                </mxCell>
                <mxCell id="83" value="浏&lt;br&gt;览&lt;br&gt;未&lt;br&gt;完&lt;br&gt;成&lt;br&gt;试&lt;br&gt;卷" style="rounded=0;whiteSpace=wrap;html=1;fillColor=#FFFFFF;strokeColor=#000000;fontColor=#000000;" vertex="1" parent="1">
                    <mxGeometry x="160" y="241" width="27" height="105" as="geometry"/>
                </mxCell>
                <mxCell id="101" style="edgeStyle=none;rounded=0;html=1;exitX=0.5;exitY=0;exitDx=0;exitDy=0;strokeColor=#000000;endArrow=none;endFill=0;" edge="1" parent="1" source="84">
                    <mxGeometry relative="1" as="geometry">
                        <mxPoint x="340.79999999999995" y="214.4305358886719" as="targetPoint"/>
                    </mxGeometry>
                </mxCell>
                <mxCell id="84" value="浏&lt;br&gt;览&lt;br&gt;已&lt;br&gt;完&lt;br&gt;成&lt;br&gt;试&lt;br&gt;卷" style="rounded=0;whiteSpace=wrap;html=1;fillColor=#FFFFFF;strokeColor=#000000;fontColor=#000000;" vertex="1" parent="1">
                    <mxGeometry x="327" y="241" width="27" height="105" as="geometry"/>
                </mxCell>
                <mxCell id="85" value="收&lt;br&gt;藏&lt;br&gt;题&lt;br&gt;目" style="rounded=0;whiteSpace=wrap;html=1;fillColor=#FFFFFF;strokeColor=#000000;fontColor=#000000;" vertex="1" parent="1">
                    <mxGeometry x="382" y="241" width="27" height="105" as="geometry"/>
                </mxCell>
                <mxCell id="100" style="edgeStyle=none;rounded=0;html=1;exitX=0.5;exitY=0;exitDx=0;exitDy=0;strokeColor=#000000;endArrow=none;endFill=0;" edge="1" parent="1" source="86">
                    <mxGeometry relative="1" as="geometry">
                        <mxPoint x="229.60000000000002" y="214.8749938964844" as="targetPoint"/>
                    </mxGeometry>
                </mxCell>
                <mxCell id="86" value="管&lt;br&gt;理&lt;br&gt;班&lt;br&gt;级" style="rounded=0;whiteSpace=wrap;html=1;fillColor=#FFFFFF;strokeColor=#000000;fontColor=#000000;" vertex="1" parent="1">
                    <mxGeometry x="216" y="241" width="27" height="105" as="geometry"/>
                </mxCell>
                <mxCell id="109" style="edgeStyle=none;rounded=0;html=1;exitX=0.5;exitY=0;exitDx=0;exitDy=0;strokeColor=#000000;endArrow=none;endFill=0;" edge="1" parent="1" source="87">
                    <mxGeometry relative="1" as="geometry">
                        <mxPoint x="473.741935483871" y="198.15365797473538" as="targetPoint"/>
                    </mxGeometry>
                </mxCell>
                <mxCell id="87" value="个&lt;br&gt;人&lt;br&gt;信&lt;br&gt;息&lt;br&gt;管&lt;br&gt;理" style="rounded=0;whiteSpace=wrap;html=1;fillColor=#FFFFFF;strokeColor=#000000;fontColor=#000000;" vertex="1" parent="1">
                    <mxGeometry x="460" y="211" width="27" height="105" as="geometry"/>
                </mxCell>
                <mxCell id="89" value="班&lt;br&gt;级&lt;br&gt;管&lt;br&gt;理" style="rounded=0;whiteSpace=wrap;html=1;fillColor=#FFFFFF;strokeColor=#000000;fontColor=#000000;" vertex="1" parent="1">
                    <mxGeometry x="536.5" y="241" width="27" height="105" as="geometry"/>
                </mxCell>
                <mxCell id="91" value="题&lt;br&gt;库&lt;br&gt;管&lt;br&gt;理" style="rounded=0;whiteSpace=wrap;html=1;fillColor=#FFFFFF;strokeColor=#000000;fontColor=#000000;" vertex="1" parent="1">
                    <mxGeometry x="596.5" y="241" width="27" height="105" as="geometry"/>
                </mxCell>
                <mxCell id="104" value="" style="edgeStyle=none;rounded=0;html=1;strokeColor=#000000;endArrow=none;endFill=0;" edge="1" parent="1" source="93" target="81">
                    <mxGeometry relative="1" as="geometry"/>
                </mxCell>
                <mxCell id="93" value="试&lt;br&gt;卷&lt;br&gt;管&lt;br&gt;理" style="rounded=0;whiteSpace=wrap;html=1;fillColor=#FFFFFF;strokeColor=#000000;fontColor=#000000;" vertex="1" parent="1">
                    <mxGeometry x="656.5" y="241" width="27" height="105" as="geometry"/>
                </mxCell>
                <mxCell id="94" value="在&lt;br&gt;线&lt;br&gt;监&lt;br&gt;考" style="rounded=0;whiteSpace=wrap;html=1;fillColor=#FFFFFF;strokeColor=#000000;fontColor=#000000;" vertex="1" parent="1">
                    <mxGeometry x="715.5" y="241" width="27" height="105" as="geometry"/>
                </mxCell>
                <mxCell id="95" value="成&lt;br&gt;绩&lt;br&gt;分&lt;br&gt;析" style="rounded=0;whiteSpace=wrap;html=1;fillColor=#FFFFFF;strokeColor=#000000;fontColor=#000000;" vertex="1" parent="1">
                    <mxGeometry x="775.5" y="241" width="27" height="105" as="geometry"/>
                </mxCell>
                <mxCell id="106" style="edgeStyle=none;rounded=0;html=1;exitX=0.5;exitY=0;exitDx=0;exitDy=0;entryX=0.5;entryY=0;entryDx=0;entryDy=0;strokeColor=#000000;endArrow=none;endFill=0;" edge="1" parent="1" source="105" target="95">
                    <mxGeometry relative="1" as="geometry">
                        <Array as="points">
                            <mxPoint x="550" y="216"/>
                            <mxPoint x="789" y="216"/>
                        </Array>
                    </mxGeometry>
                </mxCell>
                <mxCell id="105" value="班&lt;br&gt;级&lt;br&gt;管&lt;br&gt;理" style="rounded=0;whiteSpace=wrap;html=1;fillColor=#FFFFFF;strokeColor=#000000;fontColor=#000000;" vertex="1" parent="1">
                    <mxGeometry x="536.5" y="241" width="27" height="105" as="geometry"/>
                </mxCell>
                <mxCell id="107" value="" style="edgeStyle=none;orthogonalLoop=1;jettySize=auto;html=1;rounded=0;strokeColor=#000000;endArrow=none;endFill=0;" edge="1" parent="1">
                    <mxGeometry width="100" relative="1" as="geometry">
                        <mxPoint x="285" y="197" as="sourcePoint"/>
                        <mxPoint x="671" y="197" as="targetPoint"/>
                        <Array as="points"/>
                    </mxGeometry>
                </mxCell>
            </root>
        </mxGraphModel>
    </diagram>
</mxfile>